<?xml version="1.0" standalone="no"?><!DOCTYPE svg PUBLIC "-//W3C//DTD SVG 1.1//EN" "http://www.w3.org/Graphics/SVG/1.1/DTD/svg11.dtd"><svg t="1539598163954" class="icon" style="" viewBox="0 0 1024 1024" version="1.1" xmlns="http://www.w3.org/2000/svg" p-id="4481" xmlns:xlink="http://www.w3.org/1999/xlink" width="24" height="24"><defs><style type="text/css"></style></defs><path d="M181.333333 288c0-83.2 66.133333-149.333333 149.333333-149.333333s149.333333 66.133333 149.333333 149.333333c0 55.466667-29.866667 102.4-74.666667 128 25.6 108.8 102.4 198.4 202.666667 245.333333 25.6-44.8 72.533333-74.666667 128-74.666667 83.2 0 149.333333 66.133333 149.333333 149.333333 0 83.2-66.133333 149.333333-149.333333 149.333333-4.266667 0-10.666667 0-14.933333-2.133333l0 0C420.266667 870.4 181.333333 622.933333 181.333333 320M736 629.333333c-51.2 0-96 38.4-104.533333 87.466667-14.933333-4.266667-27.733333-8.533333-40.533333-14.933333 0 0 0 0 0-2.133333-96-42.666667-170.666667-121.6-209.066667-219.733333-2.133333-4.266667-4.266667-10.666667-6.4-14.933333-2.133333-4.266667-2.133333-6.4-4.266667-10.666667-6.4-21.333333-10.666667-42.666667-14.933333-64 46.933333-10.666667 81.066667-53.333333 81.066667-102.4 0-59.733333-46.933333-106.666667-106.666667-106.666667-59.733333 0-106.666667 46.933333-106.666667 106.666667 0 0 0 2.133333 0 2.133333 0 42.666667 2.133333 76.8 6.4 108.8 0 0 0 0-2.133333 0 32 209.066667 185.6 375.466667 386.133333 426.666667 0 0 0-2.133333-2.133333-2.133333 25.6 6.4 57.6 12.8 98.133333 17.066667 6.4 2.133333 10.666667 2.133333 17.066667 2.133333 2.133333 0 2.133333 0 4.266667 0 0 0 0 0 0 0 0 0 0 0 0 0 59.733333 0 106.666667-46.933333 106.666667-106.666667C842.666667 676.266667 795.733333 629.333333 736 629.333333z" p-id="4482" fill="#dbdbdb"></path></svg>