<?xml version="1.0" standalone="no"?><!DOCTYPE svg PUBLIC "-//W3C//DTD SVG 1.1//EN" "http://www.w3.org/Graphics/SVG/1.1/DTD/svg11.dtd"><svg t="1539421993338" class="icon" style="" viewBox="0 0 1024 1024" version="1.1" xmlns="http://www.w3.org/2000/svg" p-id="3728" xmlns:xlink="http://www.w3.org/1999/xlink" width="24" height="24"><defs><style type="text/css"></style></defs><path d="M865.777931 73.218582 158.222069 73.218582c-51.586912 0-93.406366 41.819454-93.406366 93.406366l0 707.554838c0 51.585889 41.819454 93.405343 93.406366 93.405343l707.555861 0c51.586912 0 93.406366-41.819454 93.406366-93.405343L959.184297 166.624948C959.184297 115.038036 917.364843 73.218582 865.777931 73.218582zM841.576739 338.686722 405.535735 761.527077c-7.414877 7.188726-17.018605 10.770298-26.597775 10.770298-9.78997 0-19.569708-3.730974-27.033703-11.193947L182.012915 591.21004c-14.944364-14.929014-14.944364-42.029232 0-56.958246 14.927991-14.929014 39.10053-17.841344 54.030567-2.913353l143.293567 143.273101 409.048233-396.642692c15.124466-14.654768 39.289841-11.419074 54.039777 3.758604C857.094154 296.880571 856.747253 323.977719 841.576739 338.686722z" p-id="3729" fill="#21BAA9"></path></svg>